<?xml version="1.0" standalone="no"?><!DOCTYPE svg PUBLIC "-//W3C//DTD SVG 1.1//EN" "http://www.w3.org/Graphics/SVG/1.1/DTD/svg11.dtd"><svg t="1697800669427" class="icon" viewBox="0 0 1024 1024" version="1.1" xmlns="http://www.w3.org/2000/svg" p-id="1490" xmlns:xlink="http://www.w3.org/1999/xlink" width="200" height="200"><path d="M917.333333 0h-810.666666A106.794667 106.794667 0 0 0 0 106.666667v810.666666C0 976.128 47.829333 1024 106.666667 1024h810.666666c58.837333 0 106.666667-47.872 106.666667-106.666667v-810.666666C1024 47.872 976.170667 0 917.333333 0z m-640 85.333333a21.333333 21.333333 0 1 1 0 42.666667 21.333333 21.333333 0 0 1 0-42.666667z m-85.333333 0a21.333333 21.333333 0 1 1 0 42.666667 21.333333 21.333333 0 0 1 0-42.666667z m-85.333333 0a21.333333 21.333333 0 1 1 0 42.666667 21.333333 21.333333 0 0 1 0-42.666667zM981.333333 917.333333c0 35.285333-28.714667 64-64 64h-810.666666c-35.285333 0-64-28.714667-64-64V213.333333h938.666666v704zM490.666667 810.666667c63.317333 0 119.978667-40.106667 140.928-99.84a21.333333 21.333333 0 1 0-40.277334-14.122667 106.666667 106.666667 0 1 1-153.557333-128 21.333333 21.333333 0 1 0-21.162667-37.034667A149.674667 149.674667 0 0 0 341.333333 661.333333c0 82.346667 66.986667 149.333333 149.333334 149.333334z m-21.333334-362.666667a42.666667 42.666667 0 1 0 0-85.333333 42.666667 42.666667 0 0 0 0 85.333333z m14.592 22.442667a21.333333 21.333333 0 0 0-13.482666 26.965333l42.666666 128A21.333333 21.333333 0 0 0 533.333333 640h112.64l37.802667 113.408a21.333333 21.333333 0 1 0 40.448-13.482667l-42.666667-128A21.333333 21.333333 0 0 0 661.333333 597.333333h-112.64l-14.208-42.666666H618.666667a21.333333 21.333333 0 0 0 0-42.666667h-98.389334l-9.344-28.074667a21.418667 21.418667 0 0 0-27.008-13.482666z" p-id="1491"></path></svg>